<svg width="12" height="12" viewBox="0 0 12 12" fill="none" xmlns="http://www.w3.org/2000/svg">
<g id="Group 6">
<circle id="Ellipse 4" cx="6" cy="6" r="6" fill="#7C97AB"/>
<g id="Group-7">
<path id="Union" fill-rule="evenodd" clip-rule="evenodd" d="M7.86195 3.18907C8.10978 2.93875 8.51361 2.93673 8.76392 3.18456C9.01424 3.43238 9.01626 3.83621 8.76843 4.08652L6.89744 5.97632L8.81532 7.91348C9.06315 8.16379 9.06113 8.56762 8.81081 8.81544C8.5605 9.06327 8.15667 9.06125 7.90885 8.81093L5.99994 6.88284L4.09103 8.81093C3.84321 9.06125 3.43938 9.06327 3.18907 8.81544C2.93875 8.56762 2.93673 8.16379 3.18456 7.91348L5.10244 5.97632L3.23145 4.08652C2.98362 3.83621 2.98564 3.43238 3.23596 3.18456C3.48627 2.93673 3.8901 2.93875 4.13793 3.18907L5.99994 5.0698L7.86195 3.18907Z" fill="white"/>
</g>
</g>
</svg>
